<?xml version="1.0" encoding="UTF-8" standalone="no"?>
<svg
   width="43"
   height="30"
   viewBox="0 0 43 30"
   fill="none"
   version="1.1"
   id="svg4"
   sodipodi:docname="AOT.svg"
   inkscape:version="1.4 (86a8ad7, 2024-10-11)"
   xmlns:inkscape="http://www.inkscape.org/namespaces/inkscape"
   xmlns:sodipodi="http://sodipodi.sourceforge.net/DTD/sodipodi-0.dtd"
   xmlns="http://www.w3.org/2000/svg"
   xmlns:svg="http://www.w3.org/2000/svg">
  <sodipodi:namedview
     id="namedview4"
     pagecolor="#ffffff"
     bordercolor="#000000"
     borderopacity="0.25"
     inkscape:showpageshadow="2"
     inkscape:pageopacity="0.0"
     inkscape:pagecheckerboard="0"
     inkscape:deskcolor="#d1d1d1"
     inkscape:zoom="5.267039"
     inkscape:cx="70.532989"
     inkscape:cy="12.43583"
     inkscape:window-width="1920"
     inkscape:window-height="991"
     inkscape:window-x="-9"
     inkscape:window-y="-9"
     inkscape:window-maximized="1"
     inkscape:current-layer="svg4" />
  <rect
     width="43"
     height="30"
     rx="4"
     fill="#ffe146"
     id="rect1"
     x="0"
     y="0" />
  <g
     clip-path="url(#clip0_280_371)"
     id="g3">
    <path
       d="m 36.2656,8.05566 h -9.4937 c -0.1352,0 -0.2066,0.16158 -0.1163,0.2632 l 1.9618,2.20964 c 0.0295,0.0334 0.0718,0.0524 0.1162,0.0524 h 1.282 c 0.0863,0 0.1563,0.0707 0.1563,0.1578 v 11.048 c 0,0.0872 0.07,0.1579 0.1562,0.1579 h 2.553 c 0.0863,0 0.1563,-0.0707 0.1563,-0.1579 v -11.048 c 0,-0.0871 0.0698,-0.1578 0.1562,-0.1578 h 3.072 c 0.0863,0 0.1563,-0.0706 0.1563,-0.1578 V 8.21349 c 0,-0.08716 -0.07,-0.15783 -0.1563,-0.15783 z"
       fill="#021198"
       id="path1" />
    <path
       fill-rule="evenodd"
       clip-rule="evenodd"
       d="m 19.7457,20.1878 c -0.0859,0.0869 -0.1143,0.2161 -0.0726,0.3315 l 0.4385,1.2133 c 0.0372,0.103 -0.0382,0.212 -0.1468,0.212 h -2.1835 c -0.0657,0 -0.1244,-0.0416 -0.1469,-0.1039 L 12.7481,8.26743 C 12.711,8.1645 12.7865,8.05566 12.8949,8.05566 h 2.1645 c 0.0656,0 0.1243,0.04143 0.1468,0.10371 l 1.88,5.20203 c 0.0131,0.0363 0.0473,0.0604 0.0855,0.0604 0.0411,0 0.0771,-0.0278 0.0883,-0.0678 0.0898,-0.3195 0.2066,-0.6276 0.3477,-0.9215 0.0602,-0.1253 0.0389,-0.2763 -0.0586,-0.3748 l -0.6225,-0.6288 c -0.1221,-0.1233 -0.1221,-0.3232 0,-0.4464 l 1.7678,-1.78567 c 0.122,-0.12327 0.3199,-0.12327 0.4419,0 l 0.5924,0.59834 c 0.0994,0.10046 0.2526,0.1206 0.3777,0.05571 0.2493,-0.12926 0.5094,-0.24026 0.7785,-0.33127 0.132,-0.04465 0.2244,-0.16745 0.2244,-0.30807 V 8.37132 c 0,-0.17433 0.14,-0.31566 0.3125,-0.31566 h 2.5 c 0.1727,0 0.3125,0.14133 0.3125,0.31566 v 0.84022 c 0,0.14062 0.0924,0.26342 0.2244,0.30807 0.2692,0.09101 0.5292,0.20201 0.7786,0.33127 0.125,0.06489 0.2783,0.04475 0.3777,-0.05571 l 0.5923,-0.59834 c 0.122,-0.12327 0.32,-0.12327 0.442,0 l 1.7678,1.78557 c 0.1221,0.1233 0.1221,0.3232 0,0.4465 l -0.6226,0.6288 c -0.0975,0.0985 -0.1188,0.2495 -0.0586,0.3748 0.1169,0.2433 0.217,0.4963 0.2991,0.7575 0.0426,0.1359 0.1653,0.2318 0.3065,0.2318 h 0.8928 c 0.1727,0 0.3125,0.1413 0.3125,0.3157 v 2.5252 c 0,0.1744 -0.1398,0.3157 -0.3125,0.3157 h -0.9532 c -0.1374,0 -0.2577,0.0908 -0.3033,0.2215 -0.0844,0.2413 -0.1843,0.4751 -0.2986,0.7001 -0.0644,0.1264 -0.0444,0.2812 0.0551,0.3816 l 0.6828,0.6898 c 0.1221,0.1232 0.1221,0.3231 0,0.4464 l -1.7678,1.7856 c -0.122,0.1233 -0.3198,0.1233 -0.442,0 l -0.713,-0.7202 c -0.0975,-0.0985 -0.247,-0.12 -0.3711,-0.0592 -0.2142,0.105 -0.4361,0.1966 -0.6645,0.2739 -0.132,0.0446 -0.2244,0.1674 -0.2244,0.308 v 1.023 c 0,0.1743 -0.1398,0.3157 -0.3125,0.3157 h -2.5 c -0.1725,0 -0.3125,-0.1414 -0.3125,-0.3157 v -1.023 c 0,-0.1406 -0.0924,-0.2634 -0.2244,-0.308 -0.2284,-0.0773 -0.4503,-0.1689 -0.6645,-0.2739 -0.1241,-0.0608 -0.2736,-0.0393 -0.3711,0.0592 z m 6.0511,-5.2791 c 0,1.7434 -1.399,3.1566 -3.125,3.1566 -1.7259,0 -3.125,-1.4132 -3.125,-3.1566 0,-1.7433 1.3991,-3.1565 3.125,-3.1565 1.726,0 3.125,1.4132 3.125,3.1565 z"
       fill="#021198"
       id="path2" />
    <path
       d="m 13.5888,12.2151 c 0.0132,-0.0361 0.013,-0.0757 -7e-4,-0.1116 L 12.1902,8.43223 C 12.1392,8.29815 11.9518,8.29707 11.8992,8.43055 L 6.66319,21.7284 c -0.0408,0.1036 0.03478,0.2161 0.14519,0.2161 h 3.09851 c 0.06533,0 0.12381,-0.041 0.14651,-0.1029 z"
       fill="#021198"
       id="path3" />
  </g>
  <defs
     id="defs4">
    <clipPath
       id="clip0_280_371">
      <rect
         width="30"
         height="13.8889"
         fill="#ffffff"
         transform="translate(6.5,8.05566)"
         id="rect4"
         x="0"
         y="0" />
    </clipPath>
  </defs>
</svg>
